<svg width="409" height="543" viewBox="0 0 409 543" fill="none" xmlns="http://www.w3.org/2000/svg">
<path opacity="0.3" d="M5.69967 437.565C5.63837 451.987 8.39412 466.282 13.8122 479.648C19.3029 492.814 27.9854 504.48 39.2327 511.813C41.9758 513.631 44.875 515.202 47.8962 516.506C50.8654 517.732 53.9444 518.674 57.0917 519.318C63.2254 520.583 69.5433 520.673 75.7106 519.584C87.9459 517.475 99.2312 511.414 109.225 503.435C109.833 502.922 110.517 502.409 111.125 501.934L112.53 500.585C113.442 499.635 114.43 498.685 115.228 497.678C117.052 495.601 118.71 493.384 120.187 491.047C123.42 485.996 126.186 480.66 128.452 475.107C133.381 462.855 137.426 450.264 140.554 437.432C147.336 410.834 152.732 382.659 159.154 354.046C160.75 346.877 162.453 339.683 164.264 332.464C166.012 325.225 167.95 317.967 169.964 310.653C174.059 295.439 179.318 280.564 185.695 266.157C187.443 262.358 189.362 258.558 191.642 254.625C192.763 252.725 194.036 250.692 195.442 248.754C196.848 246.817 198.215 244.955 199.716 243.264C205.464 236.578 212.121 230.733 219.494 225.899C233.439 216.532 247.765 210.7 261.52 204.772C275.275 198.844 288.84 193.373 301.664 186.818C314.361 180.448 326.298 172.666 337.249 163.62C347.845 154.742 356.88 144.152 363.981 132.291C370.972 120.531 376.064 107.707 377.527 95.2244C378.325 89.2727 378.242 83.2359 377.28 77.3085C376.365 72.0088 374.429 66.9373 371.58 62.3753C369.03 58.343 365.676 54.88 361.727 52.2026C357.778 49.5253 353.32 47.6913 348.63 46.8152C343.843 45.8802 338.941 45.6879 334.096 46.2453C328.894 46.8894 323.79 48.1654 318.896 50.0451C317.624 50.52 316.37 51.052 315.097 51.584L310.613 53.4839C307.649 54.8138 304.704 56.2007 301.835 57.6826C296.136 60.6274 290.436 63.8003 284.907 67.353C273.831 74.3636 262.945 82.8561 250.823 92.0516C238.114 101.832 224.702 110.665 210.698 118.479C196.099 126.279 180.785 132.66 164.967 137.535C163.068 138.181 161.054 138.694 159.097 139.264L153.834 140.765C150.927 141.62 147.982 142.551 145.057 143.558C139.224 145.609 133.448 147.946 127.825 150.549C105.349 161.037 85.704 175.742 71.7208 194.855C64.4883 204.6 58.5076 215.215 53.9189 226.45C51.4502 232.326 49.3623 238.355 47.6682 244.499C45.846 250.863 44.362 257.319 43.2225 263.84C42.0826 270.47 41.1896 277.272 40.6386 284.187C40.3537 287.436 40.1447 291.673 39.8787 295.587C39.6127 299.501 39.2137 303.395 38.7577 307.271C36.9415 322.597 34.0529 337.776 30.1133 352.697C26.3135 367.46 21.6017 381.747 16.814 395.787C14.4012 402.816 11.9883 409.789 9.84143 416.686C7.52943 423.428 6.13631 430.451 5.69967 437.565ZM0 437.565C0.0200072 433.68 0.41448 429.805 1.17794 425.995C1.8429 422.195 2.71684 418.605 3.57179 414.995C5.28169 407.756 7.12459 400.613 8.6445 393.431C10.1644 386.249 11.5133 379.087 12.4443 371.886C13.3752 364.686 13.9832 357.466 14.3442 350.266C14.8587 335.992 13.9422 321.704 11.6083 307.613C11.0764 304.117 10.3924 300.659 9.70844 297.221C9.02448 293.782 8.20753 290.59 7.40957 286.505C5.78585 278.636 4.59976 270.682 3.85678 262.681C2.2445 246.051 3.01862 229.276 6.15565 212.866C9.49394 195.713 15.7395 179.257 24.6226 164.209C33.7229 149.116 45.1123 135.529 58.3836 123.932C71.3939 112.539 85.8813 102.953 101.454 95.4334C109.116 91.6778 117.01 88.416 125.089 85.668C129.116 84.2431 133.22 83.0081 137.4 81.8682L147.545 79.1514C160.002 75.7538 172.148 71.3047 183.852 65.8521C195.996 60.0568 207.721 53.4228 218.943 45.9983C231.008 38.3987 244.06 29.5263 258.537 21.8317C265.8 17.9248 273.264 14.4051 280.899 11.2873C284.698 9.71041 288.498 8.28549 292.488 6.91757L298.34 5.01768C300.563 4.35272 302.804 3.70676 305.065 3.1178C314.335 0.762407 323.891 -0.267441 333.45 0.0589723C343.373 0.3737 353.165 2.41827 362.385 6.10062C371.796 9.88631 380.346 15.5343 387.52 22.7057C394.606 29.7787 400.099 38.2836 403.632 47.6512C406.951 56.5098 408.581 65.9117 408.438 75.3706C408.339 84.1811 406.956 92.9301 404.334 101.342C399.251 116.862 391.504 131.379 381.441 144.242C376.664 150.515 371.465 156.457 365.881 162.025C360.327 167.492 354.459 172.63 348.307 177.414C323.817 196.413 296.003 209.028 270.867 223.714C258.328 230.972 246.378 238.913 237.315 248.07C233.068 252.344 229.459 257.207 226.6 262.51C225.954 263.776 225.365 265.043 224.833 266.309C224.32 267.544 223.845 268.798 223.37 270.109C222.439 272.845 221.584 275.809 220.805 278.963C219.266 285.213 218.069 291.958 217.005 298.836C215.941 305.713 214.992 312.762 214.023 319.867L211.211 341.412C210.261 348.651 209.311 355.946 208.171 363.28C203.687 392.538 197.987 422.385 187.272 452.1C181.876 467.544 174.67 482.295 165.803 496.044C163.391 499.578 160.883 503.074 158.09 506.493C155.292 509.996 152.258 513.303 149.008 516.392C145.66 519.624 142.064 522.591 138.255 525.264C136.311 526.639 134.294 527.907 132.213 529.064L129.022 530.774C127.996 531.306 127.122 531.686 126.115 532.142C118.402 535.724 110.325 538.462 102.024 540.311C93.5787 542.178 84.9084 542.818 76.2806 542.211C67.7011 541.6 59.2929 539.504 51.43 536.018C47.5895 534.312 43.9137 532.258 40.4486 529.881C37.0759 527.575 33.8987 524.995 30.9492 522.168C19.792 511.05 11.5612 497.343 6.99159 482.27C2.49128 467.842 0.135581 452.831 0 437.717V437.565Z" fill="url(#paint0_linear_2_40)"/>
<defs>
<linearGradient id="paint0_linear_2_40" x1="91.2934" y1="179.237" x2="262.962" y2="463.82" gradientUnits="userSpaceOnUse">
<stop stop-color="white" stop-opacity="0.6"/>
<stop offset="0.633726" stop-color="white" stop-opacity="0.3"/>
</linearGradient>
</defs>
</svg>
