<svg width="334" height="206" viewBox="0 0 334 206" fill="none" xmlns="http://www.w3.org/2000/svg">
<path d="M326.277 89.4876C323.89 94.6026 321.154 99.5476 318.089 104.288C316.683 106.568 315.201 108.714 313.719 110.88C312.237 113.046 310.679 115.079 309.121 117.074C306.044 121.14 302.814 124.883 299.622 128.625C286.589 143.349 272.397 155.984 258.489 168.523L253.569 172.988L251.403 174.888L249.294 177.11C247.869 178.535 246.615 180.169 245.285 181.727C243.955 183.285 242.777 185.071 241.485 186.819C240.193 188.567 239.092 190.353 237.99 192.253C236.888 194.152 235.767 196.052 234.722 197.952C232.689 201.752 230.618 205.875 228.813 210.017C221.214 226.622 215.514 244.462 206.755 262.339C202.168 271.853 196.094 280.575 188.763 288.178C184.752 292.2 180.29 295.745 175.464 298.741C173.007 300.246 170.47 301.616 167.865 302.845C166.554 303.453 165.243 304.099 163.913 304.631L159.885 306.132C154.53 307.983 149.025 309.369 143.432 310.274C140.62 310.787 137.58 310.939 134.598 311.205C131.615 311.471 128.708 311.205 125.725 311.205C122.742 311.205 120.025 310.692 117.005 310.369C115.581 310.199 114.167 309.958 112.768 309.647L108.55 308.792L106.441 308.336L104.408 307.747L100.343 306.531C97.6543 305.76 95.0151 304.827 92.4391 303.738C82.359 299.71 72.8284 294.425 64.0737 288.007C55.6368 281.751 47.8523 274.66 40.8381 266.842C34.0011 259.093 27.9666 250.672 22.8271 241.707C21.5542 239.465 20.3383 237.204 19.1413 234.962C17.9444 232.72 16.9375 230.307 15.8545 227.989C14.7716 225.672 13.7837 223.316 12.8717 220.922C11.9598 218.528 10.9718 216.191 10.2118 213.721C6.93817 204.09 4.44759 194.21 2.76431 184.178C1.0557 174.325 0.14081 164.35 0.0284665 154.35C-0.158902 144.581 0.579021 134.816 2.23235 125.186C3.86661 115.677 6.88798 106.46 11.1998 97.8281C15.7552 89.0774 22.2543 81.4864 30.1987 75.6374C38.2905 69.8424 47.1374 65.1824 56.4932 61.7872C75.1714 55.0301 94.4929 50.2045 114.155 47.386C123.863 45.9041 133.515 44.9162 143.071 44.3082C143.998 44.2666 144.92 44.1458 145.826 43.9472L148.049 43.5482C149.569 43.0923 151.013 42.9593 152.514 42.4273L154.717 41.8003C155.458 41.5344 156.199 41.2304 156.94 41.0214C158.422 40.6224 159.98 39.8435 161.481 39.3685C168.336 36.574 175.011 33.357 181.468 29.736L192.734 23.4094L198.757 20.0086L205.217 16.6078C209.51 14.252 214.317 11.9911 219.257 9.74922C224.621 7.40609 230.129 5.40715 235.748 3.76456C242.085 1.90908 248.599 0.724655 255.184 0.230774C262.372 -0.319394 269.601 0.115269 276.671 1.5227L279.369 2.03566L281.991 2.73863C283.72 3.2326 285.487 3.70757 287.216 4.25854C290.533 5.42548 293.775 6.79601 296.924 8.3623L301.503 10.7372L305.702 13.34C308.416 15.1003 311.035 17.0028 313.548 19.0397C314.213 19.5336 314.726 19.9136 315.448 20.5406C316.17 21.1675 317.348 22.2125 318.317 23.0864C320.291 24.866 322.103 26.818 323.732 28.9191C324.131 29.4321 324.568 29.964 324.967 30.515L326.126 32.2819C326.866 33.4788 327.569 34.6568 328.272 35.8727C329.531 38.3223 330.604 40.8626 331.483 43.4723C331.863 44.7642 332.205 46.0371 332.528 47.272C332.699 47.918 332.851 48.583 332.965 49.1719L333.269 51.0718C333.44 52.2877 333.573 53.5227 333.706 54.7576C333.839 55.9925 333.801 57.0565 333.839 58.2154C333.877 59.3743 333.839 60.5143 333.839 61.6162L333.573 64.732C333.459 65.7389 333.383 66.8409 333.212 67.7908L332.661 70.7167C331.268 77.2 329.126 83.4993 326.277 89.4876Z" fill="url(#paint0_linear_3_41)"/>
<defs>
<linearGradient id="paint0_linear_3_41" x1="72.9879" y1="114.546" x2="183.082" y2="286.413" gradientUnits="userSpaceOnUse">
<stop stop-color="white" stop-opacity="0.2"/>
<stop offset="0.633726" stop-color="white" stop-opacity="0.2"/>
</linearGradient>
</defs>
</svg>
