<svg width="398" height="389" viewBox="0 0 398 389" fill="none" xmlns="http://www.w3.org/2000/svg">
<g opacity="0.3">
<path d="M336.177 103.81L341.717 102.794L342.954 96.9528L344.191 102.794L349.731 103.82L344.211 105.167L342.954 110.677L341.687 105.167L336.177 103.81Z" fill="white"/>
<path d="M107.656 135.34L113.196 134.314L114.432 128.473L115.669 134.314L121.209 135.34L115.699 136.687L114.432 142.197L113.176 136.687L107.656 135.34Z" fill="white"/>
<path d="M279.603 197.746L285.143 196.72L286.379 190.889L287.616 196.72L293.156 197.746L287.646 199.103L286.379 204.613L285.123 199.103L279.603 197.746Z" fill="white"/>
<path d="M388.822 138.185L391.918 137.612L392.612 134.345L393.306 137.612L396.393 138.185L393.316 138.939L392.612 142.016L391.908 138.939L388.822 138.185Z" fill="white"/>
<path d="M153.915 14.0156L157.002 13.4425L157.696 10.1749L158.39 13.4425L161.486 14.0156L158.4 14.7697L157.696 17.8462L156.992 14.7697L153.915 14.0156Z" fill="white"/>
<path d="M381.251 285.067L384.348 284.494L385.041 281.236L385.725 284.494L388.822 285.077L385.745 285.821L385.041 288.907L384.327 285.821L381.251 285.067Z" fill="white"/>
<path d="M16.0922 214.879L19.1889 214.305L19.8826 211.048L20.5663 214.305L23.663 214.879L20.5864 215.633L19.8826 218.719L19.1788 215.633L16.0922 214.879Z" fill="white"/>
<path d="M32.7018 48.7933L35.7985 48.2202L36.4923 44.9626L37.176 48.2202L40.2727 48.7933L37.1961 49.5473L36.4923 52.634L35.7784 49.5473L32.7018 48.7933Z" fill="white"/>
<path d="M369.306 202.411L372.403 201.838L373.087 198.58L373.78 201.838L376.877 202.411L373.801 203.165L373.087 206.252L372.383 203.165L369.306 202.411Z" fill="white"/>
<path d="M238.733 96.9524L241.829 96.3793L242.523 93.1117L243.217 96.3793L246.314 96.9524L243.227 97.7065L242.523 100.783L241.819 97.7065L238.733 96.9524Z" fill="white"/>
<path d="M126.085 358.985L129.182 358.412L129.876 355.155L130.569 358.412L133.656 358.985L130.579 359.739L129.876 362.826L129.172 359.739L126.085 358.985Z" fill="white"/>
<path d="M247.268 108.806L250.365 108.233L251.059 104.966L251.753 108.233L254.849 108.806L251.763 109.56L251.059 112.647L250.355 109.56L247.268 108.806Z" fill="white"/>
<path d="M146.586 6.95763C146.808 6.9341 147.014 6.82915 147.163 6.66301C147.313 6.49686 147.396 6.28128 147.396 6.05779C147.396 5.83429 147.313 5.61871 147.163 5.45257C147.014 5.28642 146.808 5.18147 146.586 5.15795C146.364 5.18147 146.158 5.28642 146.009 5.45256C145.859 5.61871 145.776 5.83429 145.776 6.05779C145.776 6.28128 145.859 6.49686 146.008 6.66301C146.158 6.82915 146.364 6.9341 146.586 6.95763Z" fill="white"/>
<path d="M306.659 175.255C306.881 175.231 307.087 175.126 307.236 174.96C307.386 174.794 307.468 174.578 307.468 174.355C307.468 174.131 307.386 173.916 307.236 173.75C307.087 173.583 306.881 173.478 306.659 173.455C306.436 173.478 306.231 173.583 306.081 173.75C305.932 173.916 305.849 174.131 305.849 174.355C305.849 174.578 305.932 174.794 306.081 174.96C306.231 175.126 306.436 175.231 306.659 175.255Z" fill="white"/>
<path d="M230.096 99.6574C230.333 99.6574 230.561 99.5631 230.728 99.3953C230.896 99.2275 230.991 98.9999 230.991 98.7625C230.991 98.5252 230.896 98.2976 230.728 98.1298C230.561 97.962 230.333 97.8677 230.096 97.8677C229.858 97.8677 229.631 97.962 229.463 98.1298C229.295 98.2976 229.201 98.5252 229.201 98.7625C229.201 98.9999 229.295 99.2275 229.463 99.3953C229.631 99.5631 229.858 99.6574 230.096 99.6574Z" fill="white"/>
<path d="M97.0083 13.6839C97.2456 13.6839 97.4732 13.5897 97.641 13.4219C97.8088 13.254 97.9031 13.0264 97.9031 12.7891C97.9031 12.5518 97.8088 12.3242 97.641 12.1564C97.4732 11.9886 97.2456 11.8943 97.0083 11.8943C96.7709 11.8943 96.5433 11.9886 96.3755 12.1564C96.2077 12.3242 96.1134 12.5518 96.1134 12.7891C96.1134 13.0264 96.2077 13.254 96.3755 13.4219C96.5433 13.5897 96.7709 13.6839 97.0083 13.6839Z" fill="white"/>
<path d="M396.563 1.79976C396.785 1.77623 396.991 1.67129 397.141 1.50514C397.29 1.339 397.373 1.12339 397.373 0.899889C397.373 0.676392 397.29 0.460813 397.141 0.294667C396.991 0.128521 396.785 0.0235748 396.563 4.88675e-05C396.341 0.0235748 396.135 0.128521 395.986 0.294667C395.836 0.460813 395.753 0.676391 395.753 0.899889C395.753 1.12339 395.836 1.339 395.986 1.50514C396.135 1.67129 396.341 1.77623 396.563 1.79976Z" fill="white"/>
<path d="M349.359 163.492C349.596 163.492 349.824 163.397 349.992 163.23C350.159 163.062 350.254 162.834 350.254 162.597C350.254 162.36 350.159 162.132 349.992 161.964C349.824 161.796 349.596 161.702 349.359 161.702C349.122 161.702 348.894 161.796 348.726 161.964C348.558 162.132 348.464 162.36 348.464 162.597C348.464 162.834 348.558 163.062 348.726 163.23C348.894 163.397 349.122 163.492 349.359 163.492Z" fill="white"/>
<path d="M169.067 23.0946C169.235 23.0946 169.396 23.0278 169.515 22.909C169.633 22.7903 169.7 22.6292 169.7 22.4612C169.7 22.2932 169.633 22.1321 169.515 22.0133C169.396 21.8945 169.235 21.8278 169.067 21.8278C168.899 21.8278 168.738 21.8945 168.619 22.0133C168.5 22.1321 168.433 22.2932 168.433 22.4612C168.433 22.6292 168.5 22.7903 168.619 22.909C168.738 23.0278 168.899 23.0946 169.067 23.0946Z" fill="white"/>
<path d="M42.3035 352.701C42.459 352.682 42.602 352.606 42.7057 352.488C42.8094 352.371 42.8667 352.219 42.8667 352.063C42.8667 351.906 42.8094 351.755 42.7057 351.637C42.602 351.52 42.459 351.444 42.3035 351.424C42.1479 351.444 42.0049 351.52 41.9012 351.637C41.7975 351.755 41.7403 351.906 41.7403 352.063C41.7403 352.219 41.7975 352.371 41.9012 352.488C42.0049 352.606 42.1479 352.682 42.3035 352.701Z" fill="white"/>
<path d="M287.164 148.672C287.332 148.672 287.493 148.605 287.612 148.486C287.73 148.367 287.797 148.206 287.797 148.038C287.797 147.87 287.73 147.709 287.612 147.59C287.493 147.472 287.332 147.405 287.164 147.405C286.996 147.405 286.835 147.472 286.716 147.59C286.597 147.709 286.53 147.87 286.53 148.038C286.53 148.206 286.597 148.367 286.716 148.486C286.835 148.605 286.996 148.672 287.164 148.672Z" fill="white"/>
<path d="M256.458 93.7456C256.626 93.7456 256.787 93.6789 256.906 93.5601C257.025 93.4413 257.092 93.2802 257.092 93.1122C257.092 92.9442 257.025 92.7831 256.906 92.6643C256.787 92.5455 256.626 92.4788 256.458 92.4788C256.29 92.4788 256.129 92.5455 256.01 92.6643C255.892 92.7831 255.825 92.9442 255.825 93.1122C255.825 93.2802 255.892 93.4413 256.01 93.5601C256.129 93.6789 256.29 93.7456 256.458 93.7456Z" fill="white"/>
<path d="M206.237 104.453C206.393 104.434 206.536 104.358 206.64 104.24C206.743 104.123 206.801 103.972 206.801 103.815C206.801 103.658 206.743 103.507 206.64 103.389C206.536 103.272 206.393 103.196 206.237 103.176C206.082 103.196 205.939 103.272 205.835 103.389C205.731 103.507 205.674 103.658 205.674 103.815C205.674 103.972 205.731 104.123 205.835 104.24C205.939 104.358 206.082 104.434 206.237 104.453Z" fill="white"/>
<path d="M265.607 160.204C266.063 160.204 266.5 160.023 266.823 159.7C267.145 159.378 267.326 158.94 267.326 158.484C267.326 158.028 267.145 157.591 266.823 157.269C266.5 156.946 266.063 156.765 265.607 156.765C265.151 156.765 264.714 156.946 264.391 157.269C264.069 157.591 263.888 158.028 263.888 158.484C263.888 158.94 264.069 159.378 264.391 159.7C264.714 160.023 265.151 160.204 265.607 160.204Z" fill="white"/>
<path d="M177.563 333.95L183.102 332.925L184.339 327.093L185.576 332.925L191.116 333.95L185.596 335.297L184.339 340.817L183.072 335.297L177.563 333.95Z" fill="white"/>
<path d="M198.667 384.493L201.763 383.92L202.457 380.662L203.151 383.92L206.237 384.493L203.161 385.247L202.457 388.333L201.753 385.247L198.667 384.493Z" fill="white"/>
<path d="M11.0148 300.741C11.2521 300.741 11.4797 300.647 11.6475 300.479C11.8153 300.311 11.9096 300.084 11.9096 299.846C11.9096 299.609 11.8153 299.382 11.6475 299.214C11.4797 299.046 11.2521 298.952 11.0148 298.952C10.7775 298.952 10.5499 299.046 10.3821 299.214C10.2142 299.382 10.12 299.609 10.12 299.846C10.12 300.084 10.2142 300.311 10.3821 300.479C10.5499 300.647 10.7775 300.741 11.0148 300.741Z" fill="white"/>
<path d="M25.1106 62.7582C25.3329 62.7347 25.5386 62.6297 25.6881 62.4636C25.8375 62.2974 25.9203 62.0819 25.9203 61.8584C25.9203 61.6349 25.8375 61.4193 25.6881 61.2531C25.5386 61.087 25.3329 60.9821 25.1106 60.9585C24.8884 60.9821 24.6827 61.087 24.5332 61.2531C24.3837 61.4193 24.301 61.6349 24.301 61.8584C24.301 62.0819 24.3837 62.2974 24.5332 62.4636C24.6827 62.6297 24.8884 62.7347 25.1106 62.7582Z" fill="white"/>
<path d="M0.80975 18.218C1.03201 18.1945 1.23769 18.0895 1.38718 17.9234C1.53667 17.7573 1.61938 17.5417 1.61938 17.3182C1.61938 17.0947 1.53667 16.8791 1.38718 16.7129C1.23769 16.5468 1.03201 16.4418 0.809751 16.4183C0.587495 16.4418 0.381811 16.5468 0.232324 16.7129C0.0828362 16.8791 0.000122419 17.0947 0.00012235 17.3182C0.00012228 17.5417 0.0828359 17.7573 0.232323 17.9234C0.381811 18.0895 0.587495 18.1945 0.80975 18.218Z" fill="white"/>
<path d="M46.7674 225.516C46.9897 225.492 47.1953 225.387 47.3448 225.221C47.4943 225.055 47.577 224.84 47.577 224.616C47.577 224.393 47.4943 224.177 47.3448 224.011C47.1953 223.845 46.9897 223.74 46.7674 223.716C46.5451 223.74 46.3395 223.845 46.19 224.011C46.0405 224.177 45.9578 224.393 45.9578 224.616C45.9578 224.84 46.0405 225.055 46.19 225.221C46.3395 225.387 46.5451 225.492 46.7674 225.516Z" fill="white"/>
<path d="M0.80972 380.401C1.03198 380.377 1.23766 380.272 1.38715 380.106C1.53664 379.94 1.61935 379.724 1.61935 379.501C1.61935 379.277 1.53664 379.062 1.38715 378.896C1.23766 378.729 1.03198 378.625 0.80972 378.601C0.587465 378.625 0.381781 378.729 0.232293 378.896C0.0828057 379.062 9.19013e-05 379.277 9.18319e-05 379.501C9.17626e-05 379.724 0.0828054 379.94 0.232293 380.106C0.38178 380.272 0.587464 380.377 0.80972 380.401Z" fill="white"/>
<path d="M82.2691 105.539C82.4247 105.52 82.5677 105.444 82.6714 105.326C82.7751 105.209 82.8323 105.058 82.8323 104.901C82.8323 104.744 82.7751 104.593 82.6714 104.475C82.5677 104.358 82.4247 104.282 82.2691 104.262C82.1136 104.282 81.9705 104.358 81.8668 104.475C81.7632 104.593 81.7059 104.744 81.7059 104.901C81.7059 105.058 81.7632 105.209 81.8668 105.326C81.9705 105.444 82.1136 105.52 82.2691 105.539Z" fill="white"/>
<path d="M216.171 24.1702C216.339 24.1702 216.5 24.1034 216.619 23.9846C216.737 23.8658 216.804 23.7047 216.804 23.5367C216.804 23.3687 216.737 23.2076 216.619 23.0888C216.5 22.97 216.339 22.9033 216.171 22.9033C216.003 22.9033 215.842 22.97 215.723 23.0888C215.604 23.2076 215.537 23.3687 215.537 23.5367C215.537 23.7047 215.604 23.8658 215.723 23.9846C215.842 24.1034 216.003 24.1702 216.171 24.1702Z" fill="white"/>
<path d="M310.439 314.586C310.595 314.566 310.738 314.491 310.841 314.373C310.945 314.255 311.002 314.104 311.002 313.947C311.002 313.791 310.945 313.639 310.841 313.522C310.738 313.404 310.595 313.328 310.439 313.309C310.283 313.328 310.14 313.404 310.037 313.522C309.933 313.639 309.876 313.791 309.876 313.947C309.876 314.104 309.933 314.255 310.037 314.373C310.14 314.491 310.283 314.566 310.439 314.586Z" fill="white"/>
<path d="M195.771 353.455C195.939 353.455 196.1 353.388 196.218 353.27C196.337 353.151 196.404 352.99 196.404 352.822C196.404 352.654 196.337 352.493 196.218 352.374C196.1 352.255 195.939 352.188 195.771 352.188C195.603 352.188 195.441 352.255 195.323 352.374C195.204 352.493 195.137 352.654 195.137 352.822C195.137 352.99 195.204 353.151 195.323 353.27C195.441 353.388 195.603 353.455 195.771 353.455Z" fill="white"/>
<path d="M157.696 128.091C158.152 128.091 158.589 127.909 158.911 127.587C159.234 127.265 159.415 126.827 159.415 126.371C159.415 125.915 159.234 125.478 158.911 125.156C158.589 124.833 158.152 124.652 157.696 124.652C157.24 124.652 156.802 124.833 156.48 125.156C156.157 125.478 155.976 125.915 155.976 126.371C155.976 126.827 156.157 127.265 156.48 127.587C156.802 127.909 157.24 128.091 157.696 128.091Z" fill="white"/>
<path d="M384.277 258.061C384.711 258.028 385.117 257.832 385.414 257.512C385.71 257.193 385.874 256.773 385.874 256.337C385.874 255.901 385.71 255.481 385.414 255.162C385.117 254.842 384.711 254.646 384.277 254.613C383.842 254.646 383.436 254.842 383.14 255.162C382.844 255.481 382.679 255.901 382.679 256.337C382.679 256.773 382.844 257.193 383.14 257.512C383.436 257.832 383.842 258.028 384.277 258.061Z" fill="white"/>
<path d="M32.2596 107.258C32.7156 107.258 33.1529 107.077 33.4753 106.754C33.7977 106.432 33.9789 105.995 33.9789 105.539C33.9789 105.083 33.7977 104.646 33.4753 104.323C33.1529 104.001 32.7156 103.82 32.2596 103.82C31.8036 103.82 31.3663 104.001 31.0439 104.323C30.7215 104.646 30.5403 105.083 30.5403 105.539C30.5403 105.995 30.7215 106.432 31.0439 106.754C31.3663 107.077 31.8036 107.258 32.2596 107.258Z" fill="white"/>
<path d="M176.759 173.455L179.855 172.882L180.549 169.624L181.243 172.882L184.339 173.455L181.253 174.209L180.549 177.296L179.845 174.209L176.759 173.455Z" fill="white"/>
<path d="M242.523 17.3436L245.619 16.7705L246.313 13.513L246.997 16.7705L250.093 17.3537L247.017 18.0977L246.313 21.1843L245.599 18.0977L242.523 17.3436Z" fill="white"/>
<path d="M256.237 57.5503C256.459 57.5267 256.665 57.4218 256.814 57.2556C256.964 57.0895 257.046 56.8739 257.046 56.6504C257.046 56.4269 256.964 56.2113 256.814 56.0452C256.665 55.879 256.459 55.7741 256.237 55.7506C256.014 55.7741 255.809 55.879 255.659 56.0452C255.51 56.2113 255.427 56.4269 255.427 56.6504C255.427 56.8739 255.51 57.0895 255.659 57.2556C255.809 57.4218 256.014 57.5267 256.237 57.5503Z" fill="white"/>
<path d="M291.185 81.4187C291.407 81.3952 291.613 81.2903 291.762 81.1241C291.912 80.958 291.995 80.7424 291.995 80.5189C291.995 80.2954 291.912 80.0798 291.762 79.9137C291.613 79.7475 291.407 79.6426 291.185 79.6191C290.963 79.6426 290.757 79.7475 290.608 79.9137C290.458 80.0798 290.375 80.2954 290.375 80.5189C290.375 80.7424 290.458 80.958 290.608 81.1241C290.757 81.2903 290.963 81.3952 291.185 81.4187Z" fill="white"/>
<path d="M180.548 40.2069L183.645 39.6338L184.339 36.3661L185.033 39.6338L188.129 40.2069L185.043 40.9609L184.339 44.0476L183.635 40.9609L180.548 40.2069Z" fill="white"/>
<path d="M307.976 329.215C308.198 329.191 308.404 329.086 308.553 328.92C308.703 328.754 308.785 328.539 308.785 328.315C308.785 328.092 308.703 327.876 308.553 327.71C308.404 327.544 308.198 327.439 307.976 327.415C307.753 327.439 307.548 327.544 307.398 327.71C307.249 327.876 307.166 328.092 307.166 328.315C307.166 328.539 307.249 328.754 307.398 328.92C307.548 329.086 307.753 329.191 307.976 329.215Z" fill="white"/>
<path d="M329.562 78.5436C329.73 78.5436 329.891 78.4769 330.01 78.3581C330.128 78.2393 330.195 78.0782 330.195 77.9102C330.195 77.7422 330.128 77.5811 330.01 77.4623C329.891 77.3435 329.73 77.2767 329.562 77.2767C329.394 77.2767 329.233 77.3435 329.114 77.4623C328.995 77.5811 328.928 77.7422 328.928 77.9102C328.928 78.0782 328.995 78.2393 329.114 78.3581C329.233 78.4769 329.394 78.5436 329.562 78.5436Z" fill="white"/>
<path d="M59.4559 186.505L62.5526 185.932L63.2363 182.675L63.93 185.932L67.0267 186.505L63.9501 187.259L63.2363 190.346L62.5325 187.259L59.4559 186.505Z" fill="white"/>
<path d="M23.6633 137.13C23.9006 137.13 24.1282 137.035 24.296 136.867C24.4638 136.7 24.5581 136.472 24.5581 136.235C24.5581 135.997 24.4638 135.77 24.296 135.602C24.1282 135.434 23.9006 135.34 23.6633 135.34C23.426 135.34 23.1984 135.434 23.0305 135.602C22.8627 135.77 22.7685 135.997 22.7685 136.235C22.7685 136.472 22.8627 136.7 23.0305 136.867C23.1984 137.035 23.426 137.13 23.6633 137.13Z" fill="white"/>
<path d="M147.41 203.216C147.648 203.216 147.875 203.122 148.043 202.954C148.211 202.786 148.305 202.558 148.305 202.321C148.305 202.084 148.211 201.856 148.043 201.688C147.875 201.52 147.648 201.426 147.41 201.426C147.173 201.426 146.945 201.52 146.777 201.688C146.61 201.856 146.515 202.084 146.515 202.321C146.515 202.558 146.61 202.786 146.777 202.954C146.945 203.122 147.173 203.216 147.41 203.216Z" fill="white"/>
<path d="M42.3034 293.874C42.4589 293.855 42.602 293.779 42.7057 293.662C42.8094 293.544 42.8666 293.393 42.8666 293.236C42.8666 293.079 42.8094 292.928 42.7057 292.81C42.602 292.693 42.4589 292.617 42.3034 292.598C42.1479 292.617 42.0048 292.693 41.9011 292.81C41.7974 292.928 41.7402 293.079 41.7402 293.236C41.7402 293.393 41.7974 293.544 41.9011 293.662C42.0048 293.779 42.1479 293.855 42.3034 293.874Z" fill="white"/>
<path d="M34.1699 299.736C34.6259 299.736 35.0632 299.555 35.3856 299.232C35.708 298.91 35.8892 298.473 35.8892 298.017C35.8892 297.561 35.708 297.123 35.3856 296.801C35.0632 296.479 34.6259 296.298 34.1699 296.298C33.7139 296.298 33.2766 296.479 32.9542 296.801C32.6318 297.123 32.4506 297.561 32.4506 298.017C32.4506 298.473 32.6318 298.91 32.9542 299.232C33.2766 299.555 33.7139 299.736 34.1699 299.736Z" fill="white"/>
<path d="M385.936 375.655C386.392 375.655 386.829 375.474 387.152 375.151C387.474 374.829 387.655 374.392 387.655 373.936C387.655 373.48 387.474 373.042 387.152 372.72C386.829 372.398 386.392 372.216 385.936 372.216C385.48 372.216 385.043 372.398 384.72 372.72C384.398 373.042 384.217 373.48 384.217 373.936C384.217 374.392 384.398 374.829 384.72 375.151C385.043 375.474 385.48 375.655 385.936 375.655Z" fill="white"/>
</g>
</svg>
