<svg width="120" height="106" viewBox="0 0 120 106" fill="none" xmlns="http://www.w3.org/2000/svg">
<path d="M101.203 0.629503L15.6535 0.629502C11.7076 0.629501 7.91718 2.20091 5.11623 4.99804C2.31527 7.79517 0.733171 11.5889 0.717975 15.5446C0.710378 17.5225 1.48685 19.4194 2.87659 20.8179C4.26632 22.2165 6.15547 23.0022 8.12845 23.0022L19.2871 23.0022C18.3006 23.0022 17.3561 22.6094 16.6612 21.9101C15.9663 21.2108 15.5781 20.2624 15.5819 19.2734C15.5857 18.2845 15.9812 17.3361 16.6815 16.6368C17.3817 15.9375 18.3293 15.5446 19.3158 15.5446L108.585 15.5446C109.572 15.5446 110.519 15.1518 111.22 14.4525C111.92 13.7532 112.315 12.8048 112.319 11.8159C112.331 8.84905 111.166 6.00376 109.081 3.90591C106.997 1.80806 104.163 0.629503 101.203 0.629503Z" fill="url(#paint0_linear_0_423)"/>
<path d="M107.906 23.0022L8.12861 23.0022C6.15564 23.0022 4.26649 22.2165 2.87675 20.818C1.48702 19.4194 0.710542 17.5225 0.71814 15.5447L0.431674 90.1204C0.416479 94.0761 1.96943 97.8698 4.7489 100.667C7.52837 103.464 11.3067 105.035 15.2526 105.035L107.591 105.035C114.1 105.035 119.42 100.018 119.443 93.8491L119.672 34.1886C119.696 28.0198 114.42 23.0022 107.906 23.0022ZM97.2119 71.4764C95.7406 71.4764 94.304 71.0391 93.0837 70.2196C91.8635 69.4002 90.9145 68.2355 90.3567 66.8728C89.7989 65.5101 89.6573 64.0106 89.9499 62.564C90.2425 61.1173 90.9561 59.7885 92.0005 58.7456C93.0449 57.7026 94.3732 56.9923 95.8173 56.7046C97.2615 56.4168 98.7567 56.5645 100.114 57.129C101.471 57.6934 102.629 58.6493 103.442 59.8757C104.255 61.1021 104.685 62.5439 104.68 64.0189C104.672 65.9967 103.881 67.8936 102.481 69.2922C101.08 70.6907 99.1848 71.4764 97.2119 71.4764Z" fill="url(#paint1_linear_0_423)"/>
<ellipse cx="7.43912" cy="7.45762" rx="7.43912" ry="7.45762" transform="matrix(1 1.24202e-08 -0.00384124 0.999993 89.8301 56.5613)" fill="white"/>
<defs>
<linearGradient id="paint0_linear_0_423" x1="55.9236" y1="0.629502" x2="55.9236" y2="23.0022" gradientUnits="userSpaceOnUse">
<stop stop-color="#4B68FE"/>
<stop offset="1" stop-color="#8599FF"/>
</linearGradient>
<linearGradient id="paint1_linear_0_423" x1="59.543" y1="15.5447" x2="59.543" y2="105.035" gradientUnits="userSpaceOnUse">
<stop stop-color="#DAE0FF"/>
<stop offset="1" stop-color="#8699FF"/>
</linearGradient>
</defs>
</svg>
