<svg width="195" height="206" viewBox="0 0 195 206" fill="none" xmlns="http://www.w3.org/2000/svg">
<g opacity="0.8">
<g filter="url(#filter0_d_0_421)">
<path d="M146.186 32.1641L65.2004 59.735C61.465 61.0067 58.3833 63.7158 56.6332 67.2664C54.8831 70.817 54.6081 74.9182 55.8686 78.6678C56.4988 80.5426 57.8452 82.088 59.6115 82.964C61.3778 83.8401 63.4194 83.975 65.2871 83.3392L75.8504 79.743C74.9165 80.0609 73.8957 79.9934 73.0126 79.5554C72.1294 79.1174 71.4562 78.3447 71.1411 77.4073C70.826 76.4699 70.8948 75.4446 71.3323 74.5569C71.7698 73.6693 72.5402 72.992 73.4741 72.6741L157.981 43.9044C158.914 43.5865 159.685 42.9092 160.122 42.0215C160.56 41.1339 160.629 40.1086 160.314 39.1712C159.368 36.359 157.349 34.0409 154.699 32.7268C152.05 31.4127 148.987 31.2103 146.186 32.1641Z" fill="url(#paint0_linear_0_421)"/>
<path d="M159.741 51.1831L65.2873 83.3392C63.4196 83.975 61.378 83.8401 59.6117 82.964C57.8454 82.088 56.499 80.5425 55.8688 78.6678L79.6318 149.357C80.8922 153.106 83.585 156.197 87.1176 157.949C90.6502 159.701 94.7334 159.971 98.4688 158.7L185.88 128.941C192.042 126.843 195.461 120.379 193.495 114.532L174.485 57.9804C172.519 52.1331 165.907 49.0838 159.741 51.1831ZM165.24 100.517C163.847 100.992 162.346 101.04 160.927 100.658C159.508 100.276 158.234 99.4788 157.267 98.3686C156.299 97.2584 155.682 95.8845 155.493 94.4208C155.304 92.957 155.551 91.4691 156.204 90.1453C156.856 88.8214 157.885 87.7209 159.159 86.9831C160.433 86.2453 161.896 85.9032 163.363 86.0002C164.83 86.0971 166.234 86.6287 167.399 87.5278C168.563 88.4268 169.436 89.6529 169.906 91.051C170.536 92.9258 170.398 94.9764 169.523 96.7516C168.648 98.5269 167.107 99.8815 165.24 100.517Z" fill="url(#paint1_linear_0_421)"/>
<ellipse cx="7.43912" cy="7.45762" rx="7.43912" ry="7.45762" transform="matrix(0.946645 -0.322279 0.31864 0.947876 153.445 88.777)" fill="white"/>
</g>
</g>
<g filter="url(#filter1_d_0_421)">
<path d="M147.7 102.857L51.8135 135.295C47.3908 136.791 43.742 139.978 41.67 144.156C39.5979 148.333 39.2723 153.158 40.7646 157.57C41.5108 159.775 43.1049 161.594 45.1962 162.624C47.2876 163.655 49.7048 163.814 51.9161 163.066L64.4231 158.835C63.3174 159.209 62.1088 159.129 61.0631 158.614C60.0175 158.099 59.2204 157.189 58.8473 156.087C58.4742 154.984 58.5556 153.777 59.0737 152.733C59.5917 151.689 60.5039 150.892 61.6095 150.518L161.665 116.669C162.771 116.295 163.683 115.499 164.201 114.454C164.719 113.41 164.8 112.204 164.427 111.101C163.308 107.792 160.917 105.065 157.78 103.519C154.643 101.973 151.017 101.734 147.7 102.857Z" fill="url(#paint2_linear_0_421)"/>
<path d="M163.749 125.233L51.9161 163.066C49.7048 163.814 47.2876 163.655 45.1962 162.624C43.1049 161.594 41.5108 159.775 40.7646 157.57L68.9 240.737C70.3924 245.149 73.5806 248.785 77.7632 250.847C81.9458 252.908 86.7803 253.226 91.203 251.73L194.698 216.718C201.994 214.249 206.041 206.644 203.714 199.765L181.206 133.23C178.879 126.351 171.05 122.763 163.749 125.233ZM170.26 183.276C168.611 183.834 166.833 183.892 165.153 183.442C163.473 182.992 161.965 182.054 160.82 180.748C159.674 179.442 158.943 177.826 158.719 176.103C158.495 174.381 158.788 172.631 159.561 171.073C160.333 169.516 161.551 168.221 163.06 167.353C164.569 166.485 166.301 166.082 168.038 166.196C169.774 166.31 171.437 166.936 172.816 167.994C174.195 169.051 175.228 170.494 175.784 172.139C176.53 174.345 176.367 176.757 175.331 178.846C174.295 180.935 172.471 182.528 170.26 183.276Z" fill="url(#paint3_linear_0_421)"/>
<ellipse cx="167.446" cy="174.96" rx="8.80215" ry="8.77979" transform="rotate(-18.6905 167.446 174.96)" fill="white"/>
</g>
<defs>
<filter id="filter0_d_0_421" x="16.0883" y="-16.4292" width="242.962" height="231.92" filterUnits="userSpaceOnUse" color-interpolation-filters="sRGB">
<feFlood flood-opacity="0" result="BackgroundImageFix"/>
<feColorMatrix in="SourceAlpha" type="matrix" values="0 0 0 0 0 0 0 0 0 0 0 0 0 0 0 0 0 0 127 0" result="hardAlpha"/>
<feMorphology radius="4" operator="erode" in="SourceAlpha" result="effect1_dropShadow_0_421"/>
<feOffset dx="13" dy="4"/>
<feGaussianBlur stdDeviation="28"/>
<feColorMatrix type="matrix" values="0 0 0 0 0.0627451 0 0 0 0 0.0941176 0 0 0 0 0.156863 0 0 0 0.2 0"/>
<feBlend mode="normal" in2="BackgroundImageFix" result="effect1_dropShadow_0_421"/>
<feBlend mode="normal" in="SourceGraphic" in2="effect1_dropShadow_0_421" result="shape"/>
</filter>
<filter id="filter1_d_0_421" x="0.84082" y="54.1586" width="268.531" height="254.502" filterUnits="userSpaceOnUse" color-interpolation-filters="sRGB">
<feFlood flood-opacity="0" result="BackgroundImageFix"/>
<feColorMatrix in="SourceAlpha" type="matrix" values="0 0 0 0 0 0 0 0 0 0 0 0 0 0 0 0 0 0 127 0" result="hardAlpha"/>
<feMorphology radius="4" operator="erode" in="SourceAlpha" result="effect1_dropShadow_0_421"/>
<feOffset dx="13" dy="4"/>
<feGaussianBlur stdDeviation="28"/>
<feColorMatrix type="matrix" values="0 0 0 0 0.0627451 0 0 0 0 0.0941176 0 0 0 0 0.156863 0 0 0 0.2 0"/>
<feBlend mode="normal" in2="BackgroundImageFix" result="effect1_dropShadow_0_421"/>
<feBlend mode="normal" in="SourceGraphic" in2="effect1_dropShadow_0_421" result="shape"/>
</filter>
<linearGradient id="paint0_linear_0_421" x1="103.322" y1="46.7568" x2="110.532" y2="67.9358" gradientUnits="userSpaceOnUse">
<stop stop-color="#4B68FE"/>
<stop offset="1" stop-color="#8599FF"/>
</linearGradient>
<linearGradient id="paint1_linear_0_421" x1="111.555" y1="59.7097" x2="140.396" y2="144.426" gradientUnits="userSpaceOnUse">
<stop stop-color="#DAE0FF"/>
<stop offset="1" stop-color="#8699FF"/>
</linearGradient>
<linearGradient id="paint2_linear_0_421" x1="96.9492" y1="120.025" x2="105.39" y2="144.976" gradientUnits="userSpaceOnUse">
<stop stop-color="#4B68FE"/>
<stop offset="1" stop-color="#8599FF"/>
</linearGradient>
<linearGradient id="paint3_linear_0_421" x1="106.697" y1="135.265" x2="140.459" y2="235.066" gradientUnits="userSpaceOnUse">
<stop stop-color="#DAE0FF"/>
<stop offset="1" stop-color="#8699FF"/>
</linearGradient>
</defs>
</svg>
